<mxfile host="65bd71144e">
    <diagram name="Page-1" id="1G-fVUV1LZJrFwApmLLp">
        <mxGraphModel dx="8220" dy="7220" grid="1" gridSize="10" guides="1" tooltips="1" connect="1" arrows="1" fold="1" page="0" pageScale="1" pageWidth="1600" pageHeight="900" math="0" shadow="0">
            <root>
                <mxCell id="0"/>
                <mxCell id="1" parent="0"/>
                <mxCell id="MU5tyoVie0ayg3GMmHC9-139" value="" style="rounded=0;whiteSpace=wrap;html=1;strokeColor=default;align=center;verticalAlign=middle;fontFamily=Roboto Mono;fontSource=https%3A%2F%2Ffonts.googleapis.com%2Fcss%3Ffamily%3DRoboto%2BMono;fontSize=18;fontColor=default;fillColor=none;dashed=1;movable=1;resizable=1;rotatable=1;deletable=1;editable=1;locked=0;connectable=1;container=0;" parent="1" vertex="1">
                    <mxGeometry x="4180" y="100" width="480" height="430" as="geometry"/>
                </mxCell>
                <mxCell id="MU5tyoVie0ayg3GMmHC9-3" value="Ready: True&lt;br&gt;ObservedGeneration: &amp;lt;metadata.generation&amp;gt;" style="rounded=0;whiteSpace=wrap;html=1;strokeColor=#001DBC;align=left;verticalAlign=middle;fontFamily=Roboto Mono;fontSource=https%3A%2F%2Ffonts.googleapis.com%2Fcss%3Ffamily%3DRoboto%2BMono;fontSize=18;fillColor=#0050ef;fontColor=#ffffff;" parent="1" vertex="1">
                    <mxGeometry x="3320" y="950" width="460" height="70" as="geometry"/>
                </mxCell>
                <mxCell id="MU5tyoVie0ayg3GMmHC9-49" style="edgeStyle=orthogonalEdgeStyle;rounded=0;orthogonalLoop=1;jettySize=auto;html=1;fontFamily=Roboto Mono;fontSource=https%3A%2F%2Ffonts.googleapis.com%2Fcss%3Ffamily%3DRoboto%2BMono;fontSize=18;fontColor=default;" parent="1" source="MU5tyoVie0ayg3GMmHC9-5" target="MU5tyoVie0ayg3GMmHC9-48" edge="1">
                    <mxGeometry relative="1" as="geometry"/>
                </mxCell>
                <mxCell id="MU5tyoVie0ayg3GMmHC9-5" value="InitialSync: False&lt;br&gt;Reason:&amp;nbsp;InitialSyncRequiredButNotReady" style="rounded=0;whiteSpace=wrap;html=1;strokeColor=#001DBC;align=left;verticalAlign=middle;fontFamily=Roboto Mono;fontSource=https%3A%2F%2Ffonts.googleapis.com%2Fcss%3Ffamily%3DRoboto%2BMono;fontSize=18;fillColor=#0050ef;fontColor=#ffffff;" parent="1" vertex="1">
                    <mxGeometry x="990" y="-657.5" width="440" height="80" as="geometry"/>
                </mxCell>
                <mxCell id="MU5tyoVie0ayg3GMmHC9-82" style="edgeStyle=orthogonalEdgeStyle;rounded=0;orthogonalLoop=1;jettySize=auto;html=1;fontFamily=Roboto Mono;fontSource=https%3A%2F%2Ffonts.googleapis.com%2Fcss%3Ffamily%3DRoboto%2BMono;fontSize=18;fontColor=default;" parent="1" source="MU5tyoVie0ayg3GMmHC9-6" target="MU5tyoVie0ayg3GMmHC9-79" edge="1">
                    <mxGeometry relative="1" as="geometry"/>
                </mxCell>
                <mxCell id="MU5tyoVie0ayg3GMmHC9-6" value="DevicesReady: True" style="rounded=0;whiteSpace=wrap;html=1;strokeColor=#001DBC;align=center;verticalAlign=middle;fontFamily=Roboto Mono;fontSource=https%3A%2F%2Ffonts.googleapis.com%2Fcss%3Ffamily%3DRoboto%2BMono;fontSize=18;fillColor=#0050ef;fontColor=#ffffff;" parent="1" vertex="1">
                    <mxGeometry x="2020" y="-540" width="200" height="40" as="geometry"/>
                </mxCell>
                <mxCell id="tXNj0o7xT81Ir_27zUx--25" style="edgeStyle=orthogonalEdgeStyle;rounded=0;orthogonalLoop=1;jettySize=auto;html=1;exitX=0.5;exitY=1;exitDx=0;exitDy=0;entryX=0.5;entryY=0;entryDx=0;entryDy=0;fontFamily=Roboto Mono;fontSource=https%3A%2F%2Ffonts.googleapis.com%2Fcss%3Ffamily%3DRoboto%2BMono;fontSize=18;fontColor=default;" parent="1" source="MU5tyoVie0ayg3GMmHC9-7" target="tXNj0o7xT81Ir_27zUx--5" edge="1">
                    <mxGeometry relative="1" as="geometry">
                        <Array as="points">
                            <mxPoint x="2830" y="-210"/>
                            <mxPoint x="2522" y="-210"/>
                        </Array>
                    </mxGeometry>
                </mxCell>
                <mxCell id="MU5tyoVie0ayg3GMmHC9-7" value="DevicesReady: False" style="rounded=0;whiteSpace=wrap;html=1;strokeColor=#001DBC;align=center;verticalAlign=middle;fontFamily=Roboto Mono;fontSource=https%3A%2F%2Ffonts.googleapis.com%2Fcss%3Ffamily%3DRoboto%2BMono;fontSize=18;fillColor=#0050ef;fontColor=#ffffff;" parent="1" vertex="1">
                    <mxGeometry x="2720" y="-540" width="220" height="40" as="geometry"/>
                </mxCell>
                <mxCell id="tXNj0o7xT81Ir_27zUx--4" style="edgeStyle=orthogonalEdgeStyle;rounded=0;orthogonalLoop=1;jettySize=auto;html=1;exitX=0.5;exitY=1;exitDx=0;exitDy=0;entryX=0.5;entryY=0;entryDx=0;entryDy=0;" parent="1" source="MU5tyoVie0ayg3GMmHC9-8" target="MU5tyoVie0ayg3GMmHC9-106" edge="1">
                    <mxGeometry relative="1" as="geometry"/>
                </mxCell>
                <mxCell id="MU5tyoVie0ayg3GMmHC9-8" value="ConfigurationAdjusted: False&lt;br&gt;Reason: ConfigurationAdjustmentPausedUntilInitialSync&lt;br&gt;ObservedGeneration: &amp;lt;metadata.generation&amp;gt;" style="rounded=0;whiteSpace=wrap;html=1;strokeColor=#001DBC;align=left;verticalAlign=middle;fontFamily=Roboto Mono;fontSource=https%3A%2F%2Ffonts.googleapis.com%2Fcss%3Ffamily%3DRoboto%2BMono;fontSize=18;fillColor=#0050ef;fontColor=#ffffff;" parent="1" vertex="1">
                    <mxGeometry x="790" y="225" width="680" height="70" as="geometry"/>
                </mxCell>
                <mxCell id="MU5tyoVie0ayg3GMmHC9-55" style="edgeStyle=orthogonalEdgeStyle;rounded=0;orthogonalLoop=1;jettySize=auto;html=1;exitX=0.5;exitY=1;exitDx=0;exitDy=0;entryX=0.5;entryY=0;entryDx=0;entryDy=0;fontFamily=Roboto Mono;fontSource=https%3A%2F%2Ffonts.googleapis.com%2Fcss%3Ffamily%3DRoboto%2BMono;fontSize=18;fontColor=default;" parent="1" source="MU5tyoVie0ayg3GMmHC9-11" target="MU5tyoVie0ayg3GMmHC9-54" edge="1">
                    <mxGeometry relative="1" as="geometry"/>
                </mxCell>
                <mxCell id="MU5tyoVie0ayg3GMmHC9-11" value="InitialSync: False&lt;br&gt;Reason:&amp;nbsp;SafeForInitialSync" style="rounded=0;whiteSpace=wrap;html=1;strokeColor=#001DBC;align=left;verticalAlign=middle;fontFamily=Roboto Mono;fontSource=https%3A%2F%2Ffonts.googleapis.com%2Fcss%3Ffamily%3DRoboto%2BMono;fontSize=18;fillColor=#0050ef;fontColor=#ffffff;" parent="1" vertex="1">
                    <mxGeometry x="990" y="-450" width="440" height="80" as="geometry"/>
                </mxCell>
                <mxCell id="MU5tyoVie0ayg3GMmHC9-99" style="edgeStyle=orthogonalEdgeStyle;rounded=0;orthogonalLoop=1;jettySize=auto;html=1;exitX=0.5;exitY=1;exitDx=0;exitDy=0;entryX=0.5;entryY=0;entryDx=0;entryDy=0;fontFamily=Roboto Mono;fontSource=https%3A%2F%2Ffonts.googleapis.com%2Fcss%3Ffamily%3DRoboto%2BMono;fontSize=18;fontColor=default;" parent="1" source="MU5tyoVie0ayg3GMmHC9-12" target="tXNj0o7xT81Ir_27zUx--5" edge="1">
                    <mxGeometry relative="1" as="geometry"/>
                </mxCell>
                <mxCell id="MU5tyoVie0ayg3GMmHC9-12" value="InitialSync: True&lt;br&gt;Reason:&amp;nbsp;InitialDeviceReadinessReached" style="rounded=0;whiteSpace=wrap;html=1;strokeColor=#001DBC;align=left;verticalAlign=middle;fontFamily=Roboto Mono;fontSource=https%3A%2F%2Ffonts.googleapis.com%2Fcss%3Ffamily%3DRoboto%2BMono;fontSize=18;fillColor=#0050ef;fontColor=#ffffff;" parent="1" vertex="1">
                    <mxGeometry x="2301.7200000000003" y="-410" width="440" height="80" as="geometry"/>
                </mxCell>
                <mxCell id="MU5tyoVie0ayg3GMmHC9-18" style="edgeStyle=orthogonalEdgeStyle;rounded=0;orthogonalLoop=1;jettySize=auto;html=1;fontFamily=Roboto Mono;fontSource=https%3A%2F%2Ffonts.googleapis.com%2Fcss%3Ffamily%3DRoboto%2BMono;fontSize=18;fontColor=default;" parent="1" source="MU5tyoVie0ayg3GMmHC9-17" target="MU5tyoVie0ayg3GMmHC9-5" edge="1">
                    <mxGeometry relative="1" as="geometry"/>
                </mxCell>
                <mxCell id="MU5tyoVie0ayg3GMmHC9-19" value="нет" style="edgeLabel;html=1;align=center;verticalAlign=middle;resizable=0;points=[];strokeColor=default;fontFamily=Roboto Mono;fontSource=https%3A%2F%2Ffonts.googleapis.com%2Fcss%3Ffamily%3DRoboto%2BMono;fontSize=18;fontColor=default;fillColor=default;" parent="MU5tyoVie0ayg3GMmHC9-18" connectable="0" vertex="1">
                    <mxGeometry x="-0.7028" y="1" relative="1" as="geometry">
                        <mxPoint as="offset"/>
                    </mxGeometry>
                </mxCell>
                <mxCell id="MU5tyoVie0ayg3GMmHC9-52" style="edgeStyle=orthogonalEdgeStyle;rounded=0;orthogonalLoop=1;jettySize=auto;html=1;entryX=0.5;entryY=0;entryDx=0;entryDy=0;fontFamily=Roboto Mono;fontSource=https%3A%2F%2Ffonts.googleapis.com%2Fcss%3Ffamily%3DRoboto%2BMono;fontSize=18;fontColor=default;exitX=0;exitY=0.5;exitDx=0;exitDy=0;" parent="1" source="MU5tyoVie0ayg3GMmHC9-17" target="MU5tyoVie0ayg3GMmHC9-54" edge="1">
                    <mxGeometry relative="1" as="geometry"/>
                </mxCell>
                <mxCell id="MU5tyoVie0ayg3GMmHC9-53" value="да" style="edgeLabel;html=1;align=center;verticalAlign=middle;resizable=0;points=[];strokeColor=default;fontFamily=Roboto Mono;fontSource=https%3A%2F%2Ffonts.googleapis.com%2Fcss%3Ffamily%3DRoboto%2BMono;fontSize=18;fontColor=default;fillColor=default;" parent="MU5tyoVie0ayg3GMmHC9-52" connectable="0" vertex="1">
                    <mxGeometry x="-0.6198" y="4" relative="1" as="geometry">
                        <mxPoint x="40" y="-4" as="offset"/>
                    </mxGeometry>
                </mxCell>
                <mxCell id="MU5tyoVie0ayg3GMmHC9-17" value="Есть метаданные&lt;div&gt;или diskless&lt;/div&gt;" style="rhombus;whiteSpace=wrap;html=1;strokeColor=default;align=center;verticalAlign=middle;fontFamily=Roboto Mono;fontSource=https%3A%2F%2Ffonts.googleapis.com%2Fcss%3Ffamily%3DRoboto%2BMono;fontSize=18;fontColor=default;fillColor=default;" parent="1" vertex="1">
                    <mxGeometry x="570" y="-685" width="190" height="135" as="geometry"/>
                </mxCell>
                <mxCell id="MU5tyoVie0ayg3GMmHC9-47" style="edgeStyle=orthogonalEdgeStyle;rounded=0;orthogonalLoop=1;jettySize=auto;html=1;entryX=0.5;entryY=0;entryDx=0;entryDy=0;fontFamily=Roboto Mono;fontSource=https%3A%2F%2Ffonts.googleapis.com%2Fcss%3Ffamily%3DRoboto%2BMono;fontSize=18;fontColor=default;exitX=0.5;exitY=1;exitDx=0;exitDy=0;" parent="1" source="MU5tyoVie0ayg3GMmHC9-29" target="MU5tyoVie0ayg3GMmHC9-142" edge="1">
                    <mxGeometry relative="1" as="geometry"/>
                </mxCell>
                <mxCell id="MU5tyoVie0ayg3GMmHC9-29" value="&lt;ul&gt;&lt;li&gt;Создаётся/Изменяется/Синхронизируется spec&lt;/li&gt;&lt;li&gt;Изменяется InitialSync *-&amp;gt;True&lt;/li&gt;&lt;/ul&gt;" style="rounded=1;whiteSpace=wrap;html=1;strokeColor=default;align=left;verticalAlign=middle;fontFamily=Roboto Mono;fontSource=https%3A%2F%2Ffonts.googleapis.com%2Fcss%3Ffamily%3DRoboto%2BMono;fontSize=18;fontColor=default;fillColor=default;" parent="1" vertex="1">
                    <mxGeometry x="480" y="-920" width="370" height="90" as="geometry"/>
                </mxCell>
                <mxCell id="MU5tyoVie0ayg3GMmHC9-71" style="edgeStyle=orthogonalEdgeStyle;rounded=0;orthogonalLoop=1;jettySize=auto;html=1;fontFamily=Roboto Mono;fontSource=https%3A%2F%2Ffonts.googleapis.com%2Fcss%3Ffamily%3DRoboto%2BMono;fontSize=18;fontColor=default;" parent="1" source="MU5tyoVie0ayg3GMmHC9-31" target="MU5tyoVie0ayg3GMmHC9-70" edge="1">
                    <mxGeometry relative="1" as="geometry"/>
                </mxCell>
                <mxCell id="MU5tyoVie0ayg3GMmHC9-31" value="ConfigurationAdjusted: False&lt;br&gt;Reason: ConfigurationFailed |&amp;nbsp;MetadataCheckFailed | &amp;lt;...&amp;gt;&lt;br&gt;Message: &amp;lt;...&amp;gt;" style="rounded=0;whiteSpace=wrap;html=1;strokeColor=#001DBC;align=left;verticalAlign=middle;fontFamily=Roboto Mono;fontSource=https%3A%2F%2Ffonts.googleapis.com%2Fcss%3Ffamily%3DRoboto%2BMono;fontSize=18;fillColor=#0050ef;fontColor=#ffffff;" parent="1" vertex="1">
                    <mxGeometry x="565" y="10" width="380" height="100" as="geometry"/>
                </mxCell>
                <mxCell id="MU5tyoVie0ayg3GMmHC9-35" style="edgeStyle=orthogonalEdgeStyle;rounded=0;orthogonalLoop=1;jettySize=auto;html=1;fontFamily=Roboto Mono;fontSource=https%3A%2F%2Ffonts.googleapis.com%2Fcss%3Ffamily%3DRoboto%2BMono;fontSize=18;fontColor=default;" parent="1" source="MU5tyoVie0ayg3GMmHC9-33" target="MU5tyoVie0ayg3GMmHC9-31" edge="1">
                    <mxGeometry relative="1" as="geometry"/>
                </mxCell>
                <mxCell id="MU5tyoVie0ayg3GMmHC9-36" value="нет" style="edgeLabel;html=1;align=center;verticalAlign=middle;resizable=0;points=[];strokeColor=default;fontFamily=Roboto Mono;fontSource=https%3A%2F%2Ffonts.googleapis.com%2Fcss%3Ffamily%3DRoboto%2BMono;fontSize=18;fontColor=default;fillColor=default;" parent="MU5tyoVie0ayg3GMmHC9-35" connectable="0" vertex="1">
                    <mxGeometry x="-0.5122" y="-5" relative="1" as="geometry">
                        <mxPoint as="offset"/>
                    </mxGeometry>
                </mxCell>
                <mxCell id="MU5tyoVie0ayg3GMmHC9-37" style="edgeStyle=orthogonalEdgeStyle;rounded=0;orthogonalLoop=1;jettySize=auto;html=1;fontFamily=Roboto Mono;fontSource=https%3A%2F%2Ffonts.googleapis.com%2Fcss%3Ffamily%3DRoboto%2BMono;fontSize=18;fontColor=default;exitX=0;exitY=0.5;exitDx=0;exitDy=0;entryX=0.5;entryY=0;entryDx=0;entryDy=0;" parent="1" source="MU5tyoVie0ayg3GMmHC9-33" target="MU5tyoVie0ayg3GMmHC9-84" edge="1">
                    <mxGeometry relative="1" as="geometry"/>
                </mxCell>
                <mxCell id="MU5tyoVie0ayg3GMmHC9-38" value="да" style="edgeLabel;html=1;align=center;verticalAlign=middle;resizable=0;points=[];strokeColor=default;fontFamily=Roboto Mono;fontSource=https%3A%2F%2Ffonts.googleapis.com%2Fcss%3Ffamily%3DRoboto%2BMono;fontSize=18;fontColor=default;fillColor=default;" parent="MU5tyoVie0ayg3GMmHC9-37" connectable="0" vertex="1">
                    <mxGeometry x="-0.4286" relative="1" as="geometry">
                        <mxPoint as="offset"/>
                    </mxGeometry>
                </mxCell>
                <mxCell id="MU5tyoVie0ayg3GMmHC9-33" value="Основные&lt;br&gt;настройки успешно применены" style="rhombus;whiteSpace=wrap;html=1;strokeColor=default;align=center;verticalAlign=middle;fontFamily=Roboto Mono;fontSource=https%3A%2F%2Ffonts.googleapis.com%2Fcss%3Ffamily%3DRoboto%2BMono;fontSize=18;fontColor=default;fillColor=default;" parent="1" vertex="1">
                    <mxGeometry x="405" y="-180" width="130" height="130" as="geometry"/>
                </mxCell>
                <mxCell id="MU5tyoVie0ayg3GMmHC9-128" style="edgeStyle=orthogonalEdgeStyle;rounded=0;orthogonalLoop=1;jettySize=auto;html=1;exitX=0.5;exitY=1;exitDx=0;exitDy=0;entryX=0.5;entryY=0;entryDx=0;entryDy=0;fontFamily=Roboto Mono;fontSource=https%3A%2F%2Ffonts.googleapis.com%2Fcss%3Ffamily%3DRoboto%2BMono;fontSize=18;fontColor=default;" parent="1" source="MU5tyoVie0ayg3GMmHC9-43" target="MU5tyoVie0ayg3GMmHC9-77" edge="1">
                    <mxGeometry relative="1" as="geometry"/>
                </mxCell>
                <mxCell id="MU5tyoVie0ayg3GMmHC9-43" value="Применяется spec.primary" style="rounded=1;whiteSpace=wrap;html=1;strokeColor=default;align=center;verticalAlign=middle;fontFamily=Roboto Mono;fontSource=https%3A%2F%2Ffonts.googleapis.com%2Fcss%3Ffamily%3DRoboto%2BMono;fontSize=18;fontColor=default;fillColor=default;" parent="1" vertex="1">
                    <mxGeometry x="3875" y="-675" width="300" height="50" as="geometry"/>
                </mxCell>
                <mxCell id="MU5tyoVie0ayg3GMmHC9-93" style="edgeStyle=orthogonalEdgeStyle;rounded=0;orthogonalLoop=1;jettySize=auto;html=1;exitX=0.5;exitY=1;exitDx=0;exitDy=0;entryX=0.5;entryY=0;entryDx=0;entryDy=0;fontFamily=Roboto Mono;fontSource=https%3A%2F%2Ffonts.googleapis.com%2Fcss%3Ffamily%3DRoboto%2BMono;fontSize=18;fontColor=default;" parent="1" source="MU5tyoVie0ayg3GMmHC9-44" target="MU5tyoVie0ayg3GMmHC9-91" edge="1">
                    <mxGeometry relative="1" as="geometry"/>
                </mxCell>
                <mxCell id="MU5tyoVie0ayg3GMmHC9-44" value="Применяется spec.quorum" style="rounded=1;whiteSpace=wrap;html=1;strokeColor=default;align=center;verticalAlign=middle;fontFamily=Roboto Mono;fontSource=https%3A%2F%2Ffonts.googleapis.com%2Fcss%3Ffamily%3DRoboto%2BMono;fontSize=18;fontColor=default;fillColor=default;" parent="1" vertex="1">
                    <mxGeometry x="-75" y="450" width="300" height="50" as="geometry"/>
                </mxCell>
                <mxCell id="MU5tyoVie0ayg3GMmHC9-50" style="edgeStyle=orthogonalEdgeStyle;rounded=0;orthogonalLoop=1;jettySize=auto;html=1;fontFamily=Roboto Mono;fontSource=https%3A%2F%2Ffonts.googleapis.com%2Fcss%3Ffamily%3DRoboto%2BMono;fontSize=18;fontColor=default;" parent="1" source="MU5tyoVie0ayg3GMmHC9-48" target="MU5tyoVie0ayg3GMmHC9-11" edge="1">
                    <mxGeometry relative="1" as="geometry"/>
                </mxCell>
                <mxCell id="MU5tyoVie0ayg3GMmHC9-48" value="создаются метаданные" style="rounded=1;whiteSpace=wrap;html=1;strokeColor=default;align=center;verticalAlign=middle;fontFamily=Roboto Mono;fontSource=https%3A%2F%2Ffonts.googleapis.com%2Fcss%3Ffamily%3DRoboto%2BMono;fontSize=18;fontColor=default;fillColor=default;" parent="1" vertex="1">
                    <mxGeometry x="1055" y="-530" width="310" height="40" as="geometry"/>
                </mxCell>
                <mxCell id="MU5tyoVie0ayg3GMmHC9-75" style="edgeStyle=orthogonalEdgeStyle;rounded=0;orthogonalLoop=1;jettySize=auto;html=1;exitX=0.5;exitY=1;exitDx=0;exitDy=0;fontFamily=Roboto Mono;fontSource=https%3A%2F%2Ffonts.googleapis.com%2Fcss%3Ffamily%3DRoboto%2BMono;fontSize=18;fontColor=default;" parent="1" source="MU5tyoVie0ayg3GMmHC9-51" target="MU5tyoVie0ayg3GMmHC9-74" edge="1">
                    <mxGeometry relative="1" as="geometry"/>
                </mxCell>
                <mxCell id="MU5tyoVie0ayg3GMmHC9-51" value="Добавлена аннотация, либо синхронизируется ресурс с аннотацией&lt;br&gt;sds-replicated-volume.deckhouse.io/primary-force" style="rounded=1;whiteSpace=wrap;html=1;strokeColor=default;align=center;verticalAlign=middle;fontFamily=Roboto Mono;fontSource=https%3A%2F%2Ffonts.googleapis.com%2Fcss%3Ffamily%3DRoboto%2BMono;fontSize=18;fontColor=default;fillColor=default;" parent="1" vertex="1">
                    <mxGeometry x="3760" y="-920" width="530" height="80" as="geometry"/>
                </mxCell>
                <mxCell id="MU5tyoVie0ayg3GMmHC9-56" style="edgeStyle=orthogonalEdgeStyle;rounded=0;orthogonalLoop=1;jettySize=auto;html=1;exitX=0.5;exitY=1;exitDx=0;exitDy=0;entryX=0.5;entryY=0;entryDx=0;entryDy=0;fontFamily=Roboto Mono;fontSource=https%3A%2F%2Ffonts.googleapis.com%2Fcss%3Ffamily%3DRoboto%2BMono;fontSize=18;fontColor=default;" parent="1" source="MU5tyoVie0ayg3GMmHC9-54" target="MU5tyoVie0ayg3GMmHC9-33" edge="1">
                    <mxGeometry relative="1" as="geometry"/>
                </mxCell>
                <mxCell id="MU5tyoVie0ayg3GMmHC9-54" value="Применяются основные настройки spec" style="rounded=1;whiteSpace=wrap;html=1;strokeColor=default;align=center;verticalAlign=middle;fontFamily=Roboto Mono;fontSource=https%3A%2F%2Ffonts.googleapis.com%2Fcss%3Ffamily%3DRoboto%2BMono;fontSize=18;fontColor=default;fillColor=default;" parent="1" vertex="1">
                    <mxGeometry x="275" y="-290" width="390" height="60" as="geometry"/>
                </mxCell>
                <mxCell id="MU5tyoVie0ayg3GMmHC9-59" style="edgeStyle=orthogonalEdgeStyle;rounded=0;orthogonalLoop=1;jettySize=auto;html=1;entryX=0.5;entryY=0;entryDx=0;entryDy=0;fontFamily=Roboto Mono;fontSource=https%3A%2F%2Ffonts.googleapis.com%2Fcss%3Ffamily%3DRoboto%2BMono;fontSize=18;fontColor=default;" parent="1" source="MU5tyoVie0ayg3GMmHC9-57" target="MU5tyoVie0ayg3GMmHC9-58" edge="1">
                    <mxGeometry relative="1" as="geometry"/>
                </mxCell>
                <mxCell id="MU5tyoVie0ayg3GMmHC9-57" value="меняется состояние DRBD ресурса на узле&lt;div&gt;&lt;br style=&quot;text-wrap: nowrap; background-color: rgb(18, 18, 18);&quot;&gt;&lt;/div&gt;" style="rounded=1;whiteSpace=wrap;html=1;strokeColor=default;align=center;verticalAlign=middle;fontFamily=Roboto Mono;fontSource=https%3A%2F%2Ffonts.googleapis.com%2Fcss%3Ffamily%3DRoboto%2BMono;fontSize=18;fontColor=default;fillColor=default;" parent="1" vertex="1">
                    <mxGeometry x="2298.57" y="-930" width="250" height="80" as="geometry"/>
                </mxCell>
                <mxCell id="MU5tyoVie0ayg3GMmHC9-63" style="edgeStyle=orthogonalEdgeStyle;rounded=0;orthogonalLoop=1;jettySize=auto;html=1;exitX=0;exitY=0.5;exitDx=0;exitDy=0;entryX=0.5;entryY=0;entryDx=0;entryDy=0;fontFamily=Roboto Mono;fontSource=https%3A%2F%2Ffonts.googleapis.com%2Fcss%3Ffamily%3DRoboto%2BMono;fontSize=18;fontColor=default;" parent="1" source="MU5tyoVie0ayg3GMmHC9-58" target="MU5tyoVie0ayg3GMmHC9-6" edge="1">
                    <mxGeometry relative="1" as="geometry"/>
                </mxCell>
                <mxCell id="MU5tyoVie0ayg3GMmHC9-64" value="да" style="edgeLabel;html=1;align=center;verticalAlign=middle;resizable=0;points=[];strokeColor=default;fontFamily=Roboto Mono;fontSource=https%3A%2F%2Ffonts.googleapis.com%2Fcss%3Ffamily%3DRoboto%2BMono;fontSize=18;fontColor=default;fillColor=default;" parent="MU5tyoVie0ayg3GMmHC9-63" connectable="0" vertex="1">
                    <mxGeometry x="-0.6844" y="1" relative="1" as="geometry">
                        <mxPoint as="offset"/>
                    </mxGeometry>
                </mxCell>
                <mxCell id="MU5tyoVie0ayg3GMmHC9-66" style="edgeStyle=orthogonalEdgeStyle;rounded=0;orthogonalLoop=1;jettySize=auto;html=1;exitX=1;exitY=0.5;exitDx=0;exitDy=0;entryX=0.5;entryY=0;entryDx=0;entryDy=0;fontFamily=Roboto Mono;fontSource=https%3A%2F%2Ffonts.googleapis.com%2Fcss%3Ffamily%3DRoboto%2BMono;fontSize=18;fontColor=default;" parent="1" source="MU5tyoVie0ayg3GMmHC9-58" target="MU5tyoVie0ayg3GMmHC9-7" edge="1">
                    <mxGeometry relative="1" as="geometry"/>
                </mxCell>
                <mxCell id="MU5tyoVie0ayg3GMmHC9-67" value="нет" style="edgeLabel;html=1;align=center;verticalAlign=middle;resizable=0;points=[];strokeColor=default;fontFamily=Roboto Mono;fontSource=https%3A%2F%2Ffonts.googleapis.com%2Fcss%3Ffamily%3DRoboto%2BMono;fontSize=18;fontColor=default;fillColor=default;" parent="MU5tyoVie0ayg3GMmHC9-66" connectable="0" vertex="1">
                    <mxGeometry x="-0.86" y="-1" relative="1" as="geometry">
                        <mxPoint as="offset"/>
                    </mxGeometry>
                </mxCell>
                <mxCell id="MU5tyoVie0ayg3GMmHC9-58" value="все девайсы DRBD ресурса на узле находятся в состоянии:&lt;div style=&quot;text-align: left;&quot;&gt;&lt;span style=&quot;background-color: transparent;&quot;&gt;&lt;ul style=&quot;&quot;&gt;&lt;li style=&quot;&quot;&gt;&lt;span style=&quot;background-color: transparent;&quot;&gt;UpToDate (для diskfull)&lt;/span&gt;&lt;/li&gt;&lt;li style=&quot;&quot;&gt;&lt;span style=&quot;background-color: transparent;&quot;&gt;Diskless (для diskless)&lt;/span&gt;&lt;/li&gt;&lt;/ul&gt;&lt;/span&gt;&lt;/div&gt;" style="rhombus;whiteSpace=wrap;html=1;strokeColor=default;align=center;verticalAlign=middle;fontFamily=Roboto Mono;fontSource=https%3A%2F%2Ffonts.googleapis.com%2Fcss%3Ffamily%3DRoboto%2BMono;fontSize=18;fontColor=default;fillColor=default;" parent="1" vertex="1">
                    <mxGeometry x="2298.57" y="-780" width="250" height="250" as="geometry"/>
                </mxCell>
                <mxCell id="MU5tyoVie0ayg3GMmHC9-70" value="" style="rounded=0;whiteSpace=wrap;html=1;strokeColor=#C73500;align=center;verticalAlign=middle;fontFamily=Roboto Mono;fontSource=https%3A%2F%2Ffonts.googleapis.com%2Fcss%3Ffamily%3DRoboto%2BMono;fontSize=18;fillColor=#fa6800;fontColor=#000000;" parent="1" vertex="1">
                    <mxGeometry x="1085" y="40" width="50" height="40" as="geometry"/>
                </mxCell>
                <mxCell id="MU5tyoVie0ayg3GMmHC9-124" style="edgeStyle=orthogonalEdgeStyle;rounded=0;orthogonalLoop=1;jettySize=auto;html=1;fontFamily=Roboto Mono;fontSource=https%3A%2F%2Ffonts.googleapis.com%2Fcss%3Ffamily%3DRoboto%2BMono;fontSize=18;fontColor=default;" parent="1" source="MU5tyoVie0ayg3GMmHC9-72" target="MU5tyoVie0ayg3GMmHC9-121" edge="1">
                    <mxGeometry relative="1" as="geometry"/>
                </mxCell>
                <mxCell id="MU5tyoVie0ayg3GMmHC9-72" value="Добавлена аннотация, либо синхронизируется ресурс с аннотацией&lt;br&gt;sds-replicated-volume.deckhouse.io/need-resize" style="rounded=1;whiteSpace=wrap;html=1;strokeColor=default;align=center;verticalAlign=middle;fontFamily=Roboto Mono;fontSource=https%3A%2F%2Ffonts.googleapis.com%2Fcss%3Ffamily%3DRoboto%2BMono;fontSize=18;fontColor=default;fillColor=default;" parent="1" vertex="1">
                    <mxGeometry x="4435" y="-920" width="530" height="80" as="geometry"/>
                </mxCell>
                <mxCell id="MU5tyoVie0ayg3GMmHC9-76" style="edgeStyle=orthogonalEdgeStyle;rounded=0;orthogonalLoop=1;jettySize=auto;html=1;fontFamily=Roboto Mono;fontSource=https%3A%2F%2Ffonts.googleapis.com%2Fcss%3Ffamily%3DRoboto%2BMono;fontSize=18;fontColor=default;" parent="1" source="MU5tyoVie0ayg3GMmHC9-74" target="MU5tyoVie0ayg3GMmHC9-43" edge="1">
                    <mxGeometry relative="1" as="geometry"/>
                </mxCell>
                <mxCell id="MU5tyoVie0ayg3GMmHC9-74" value="Запускается первоначальная синхронизация DRBD" style="rounded=1;whiteSpace=wrap;html=1;strokeColor=default;align=center;verticalAlign=middle;fontFamily=Roboto Mono;fontSource=https%3A%2F%2Ffonts.googleapis.com%2Fcss%3Ffamily%3DRoboto%2BMono;fontSize=18;fontColor=default;fillColor=default;" parent="1" vertex="1">
                    <mxGeometry x="3875" y="-780" width="300" height="50" as="geometry"/>
                </mxCell>
                <mxCell id="MU5tyoVie0ayg3GMmHC9-77" value="Снимается аннотация&lt;br&gt;sds-replicated-volume.deckhouse.io/primary-force" style="rounded=1;whiteSpace=wrap;html=1;strokeColor=default;align=center;verticalAlign=middle;fontFamily=Roboto Mono;fontSource=https%3A%2F%2Ffonts.googleapis.com%2Fcss%3Ffamily%3DRoboto%2BMono;fontSize=18;fontColor=default;fillColor=default;" parent="1" vertex="1">
                    <mxGeometry x="3750" y="-570" width="550" height="50" as="geometry"/>
                </mxCell>
                <mxCell id="MU5tyoVie0ayg3GMmHC9-100" style="edgeStyle=orthogonalEdgeStyle;rounded=0;orthogonalLoop=1;jettySize=auto;html=1;exitX=0;exitY=0.5;exitDx=0;exitDy=0;entryX=0.5;entryY=0;entryDx=0;entryDy=0;fontFamily=Roboto Mono;fontSource=https%3A%2F%2Ffonts.googleapis.com%2Fcss%3Ffamily%3DRoboto%2BMono;fontSize=18;fontColor=default;" parent="1" source="MU5tyoVie0ayg3GMmHC9-79" target="tXNj0o7xT81Ir_27zUx--5" edge="1">
                    <mxGeometry relative="1" as="geometry">
                        <Array as="points">
                            <mxPoint x="1980" y="-370"/>
                            <mxPoint x="1980" y="-210"/>
                            <mxPoint x="2522" y="-210"/>
                        </Array>
                    </mxGeometry>
                </mxCell>
                <mxCell id="MU5tyoVie0ayg3GMmHC9-101" value="&amp;lt;*&amp;gt;" style="edgeLabel;html=1;align=center;verticalAlign=middle;resizable=0;points=[];strokeColor=default;fontFamily=Roboto Mono;fontSource=https%3A%2F%2Ffonts.googleapis.com%2Fcss%3Ffamily%3DRoboto%2BMono;fontSize=18;fontColor=default;fillColor=default;" parent="MU5tyoVie0ayg3GMmHC9-100" connectable="0" vertex="1">
                    <mxGeometry x="-0.9322" relative="1" as="geometry">
                        <mxPoint as="offset"/>
                    </mxGeometry>
                </mxCell>
                <mxCell id="tXNj0o7xT81Ir_27zUx--23" style="edgeStyle=orthogonalEdgeStyle;rounded=0;orthogonalLoop=1;jettySize=auto;html=1;exitX=1;exitY=0.5;exitDx=0;exitDy=0;entryX=0;entryY=0.5;entryDx=0;entryDy=0;fontFamily=Roboto Mono;fontSource=https%3A%2F%2Ffonts.googleapis.com%2Fcss%3Ffamily%3DRoboto%2BMono;fontSize=18;fontColor=default;" parent="1" source="MU5tyoVie0ayg3GMmHC9-79" target="MU5tyoVie0ayg3GMmHC9-12" edge="1">
                    <mxGeometry relative="1" as="geometry"/>
                </mxCell>
                <mxCell id="tXNj0o7xT81Ir_27zUx--24" value="False" style="edgeLabel;html=1;align=center;verticalAlign=middle;resizable=0;points=[];strokeColor=default;fontFamily=Roboto Mono;fontSource=https%3A%2F%2Ffonts.googleapis.com%2Fcss%3Ffamily%3DRoboto%2BMono;fontSize=18;fontColor=default;fillColor=default;" parent="tXNj0o7xT81Ir_27zUx--23" connectable="0" vertex="1">
                    <mxGeometry x="-0.4629" y="-1" relative="1" as="geometry">
                        <mxPoint x="10" y="-1" as="offset"/>
                    </mxGeometry>
                </mxCell>
                <mxCell id="MU5tyoVie0ayg3GMmHC9-79" value="InitialSync: &amp;lt;?&amp;gt;" style="rhombus;whiteSpace=wrap;html=1;strokeColor=default;align=center;verticalAlign=middle;fontFamily=Roboto Mono;fontSource=https%3A%2F%2Ffonts.googleapis.com%2Fcss%3Ffamily%3DRoboto%2BMono;fontSize=18;fontColor=default;fillColor=default;" parent="1" vertex="1">
                    <mxGeometry x="2050" y="-440" width="140" height="140" as="geometry"/>
                </mxCell>
                <mxCell id="MU5tyoVie0ayg3GMmHC9-87" style="edgeStyle=orthogonalEdgeStyle;rounded=0;orthogonalLoop=1;jettySize=auto;html=1;exitX=0;exitY=0.5;exitDx=0;exitDy=0;entryX=0.5;entryY=0;entryDx=0;entryDy=0;fontFamily=Roboto Mono;fontSource=https%3A%2F%2Ffonts.googleapis.com%2Fcss%3Ffamily%3DRoboto%2BMono;fontSize=18;fontColor=default;" parent="1" source="MU5tyoVie0ayg3GMmHC9-84" target="MU5tyoVie0ayg3GMmHC9-86" edge="1">
                    <mxGeometry relative="1" as="geometry"/>
                </mxCell>
                <mxCell id="MU5tyoVie0ayg3GMmHC9-88" value="True" style="edgeLabel;html=1;align=center;verticalAlign=middle;resizable=0;points=[];strokeColor=default;fontFamily=Roboto Mono;fontSource=https%3A%2F%2Ffonts.googleapis.com%2Fcss%3Ffamily%3DRoboto%2BMono;fontSize=18;fontColor=default;fillColor=default;" parent="MU5tyoVie0ayg3GMmHC9-87" connectable="0" vertex="1">
                    <mxGeometry x="-0.4522" y="4" relative="1" as="geometry">
                        <mxPoint as="offset"/>
                    </mxGeometry>
                </mxCell>
                <mxCell id="9URH--LWAzWo3OgIna6w-4" style="edgeStyle=orthogonalEdgeStyle;rounded=0;orthogonalLoop=1;jettySize=auto;html=1;exitX=1;exitY=0.5;exitDx=0;exitDy=0;entryX=0;entryY=0.5;entryDx=0;entryDy=0;" parent="1" source="MU5tyoVie0ayg3GMmHC9-84" target="MU5tyoVie0ayg3GMmHC9-8" edge="1">
                    <mxGeometry relative="1" as="geometry"/>
                </mxCell>
                <mxCell id="9URH--LWAzWo3OgIna6w-6" value="&amp;lt;*&amp;gt;" style="edgeLabel;html=1;align=center;verticalAlign=middle;resizable=0;points=[];strokeColor=default;fontFamily=Roboto Mono;fontSource=https%3A%2F%2Ffonts.googleapis.com%2Fcss%3Ffamily%3DRoboto%2BMono;fontSize=18;fontColor=default;labelBackgroundColor=default;fillColor=default;gradientColor=none;" parent="9URH--LWAzWo3OgIna6w-4" connectable="0" vertex="1">
                    <mxGeometry x="-0.9533" y="-1" relative="1" as="geometry">
                        <mxPoint as="offset"/>
                    </mxGeometry>
                </mxCell>
                <mxCell id="MU5tyoVie0ayg3GMmHC9-84" value="InitialSync: ?" style="rhombus;whiteSpace=wrap;html=1;strokeColor=default;align=center;verticalAlign=middle;fontFamily=Roboto Mono;fontSource=https%3A%2F%2Ffonts.googleapis.com%2Fcss%3Ffamily%3DRoboto%2BMono;fontSize=18;fontColor=default;fillColor=default;" parent="1" vertex="1">
                    <mxGeometry x="200" y="190" width="140" height="140" as="geometry"/>
                </mxCell>
                <mxCell id="MU5tyoVie0ayg3GMmHC9-89" style="edgeStyle=orthogonalEdgeStyle;rounded=0;orthogonalLoop=1;jettySize=auto;html=1;fontFamily=Roboto Mono;fontSource=https%3A%2F%2Ffonts.googleapis.com%2Fcss%3Ffamily%3DRoboto%2BMono;fontSize=18;fontColor=default;" parent="1" source="MU5tyoVie0ayg3GMmHC9-86" target="MU5tyoVie0ayg3GMmHC9-44" edge="1">
                    <mxGeometry relative="1" as="geometry"/>
                </mxCell>
                <mxCell id="MU5tyoVie0ayg3GMmHC9-86" value="Применяется spec.primary" style="rounded=1;whiteSpace=wrap;html=1;strokeColor=default;align=center;verticalAlign=middle;fontFamily=Roboto Mono;fontSource=https%3A%2F%2Ffonts.googleapis.com%2Fcss%3Ffamily%3DRoboto%2BMono;fontSize=18;fontColor=default;fillColor=default;" parent="1" vertex="1">
                    <mxGeometry x="-75" y="340" width="300" height="50" as="geometry"/>
                </mxCell>
                <mxCell id="MU5tyoVie0ayg3GMmHC9-97" style="edgeStyle=orthogonalEdgeStyle;rounded=0;orthogonalLoop=1;jettySize=auto;html=1;exitX=0.5;exitY=1;exitDx=0;exitDy=0;fontFamily=Roboto Mono;fontSource=https%3A%2F%2Ffonts.googleapis.com%2Fcss%3Ffamily%3DRoboto%2BMono;fontSize=18;fontColor=default;entryX=0.5;entryY=0;entryDx=0;entryDy=0;" parent="1" source="MU5tyoVie0ayg3GMmHC9-91" target="MU5tyoVie0ayg3GMmHC9-106" edge="1">
                    <mxGeometry relative="1" as="geometry">
                        <mxPoint x="2090" y="1140" as="targetPoint"/>
                    </mxGeometry>
                </mxCell>
                <mxCell id="MU5tyoVie0ayg3GMmHC9-91" value="ConfigurationAdjusted: True&lt;br&gt;ObservedGeneration: &amp;lt;metadata.generation&amp;gt;" style="rounded=0;whiteSpace=wrap;html=1;strokeColor=#001DBC;align=left;verticalAlign=middle;fontFamily=Roboto Mono;fontSource=https%3A%2F%2Ffonts.googleapis.com%2Fcss%3Ffamily%3DRoboto%2BMono;fontSize=18;fillColor=#0050ef;fontColor=#ffffff;" parent="1" vertex="1">
                    <mxGeometry x="-160" y="550" width="470" height="70" as="geometry"/>
                </mxCell>
                <mxCell id="MU5tyoVie0ayg3GMmHC9-103" style="edgeStyle=orthogonalEdgeStyle;rounded=0;orthogonalLoop=1;jettySize=auto;html=1;exitX=0;exitY=0.5;exitDx=0;exitDy=0;entryX=0.5;entryY=0;entryDx=0;entryDy=0;fontFamily=Roboto Mono;fontSource=https%3A%2F%2Ffonts.googleapis.com%2Fcss%3Ffamily%3DRoboto%2BMono;fontSize=18;fontColor=default;" parent="1" source="MU5tyoVie0ayg3GMmHC9-94" target="MU5tyoVie0ayg3GMmHC9-102" edge="1">
                    <mxGeometry relative="1" as="geometry"/>
                </mxCell>
                <mxCell id="MU5tyoVie0ayg3GMmHC9-104" value="&amp;lt;*&amp;gt;" style="edgeLabel;html=1;align=center;verticalAlign=middle;resizable=0;points=[];strokeColor=default;fontFamily=Roboto Mono;fontSource=https%3A%2F%2Ffonts.googleapis.com%2Fcss%3Ffamily%3DRoboto%2BMono;fontSize=18;fontColor=default;fillColor=default;" parent="MU5tyoVie0ayg3GMmHC9-103" connectable="0" vertex="1">
                    <mxGeometry x="-0.6505" y="-1" relative="1" as="geometry">
                        <mxPoint x="-1" as="offset"/>
                    </mxGeometry>
                </mxCell>
                <mxCell id="MU5tyoVie0ayg3GMmHC9-126" style="edgeStyle=orthogonalEdgeStyle;rounded=0;orthogonalLoop=1;jettySize=auto;html=1;exitX=1;exitY=0.5;exitDx=0;exitDy=0;entryX=0.5;entryY=0;entryDx=0;entryDy=0;fontFamily=Roboto Mono;fontSource=https%3A%2F%2Ffonts.googleapis.com%2Fcss%3Ffamily%3DRoboto%2BMono;fontSize=18;fontColor=default;" parent="1" source="MU5tyoVie0ayg3GMmHC9-94" target="tXNj0o7xT81Ir_27zUx--30" edge="1">
                    <mxGeometry relative="1" as="geometry"/>
                </mxCell>
                <mxCell id="MU5tyoVie0ayg3GMmHC9-127" value="True" style="edgeLabel;html=1;align=center;verticalAlign=middle;resizable=0;points=[];strokeColor=default;fontFamily=Roboto Mono;fontSource=https%3A%2F%2Ffonts.googleapis.com%2Fcss%3Ffamily%3DRoboto%2BMono;fontSize=18;fontColor=default;fillColor=default;" parent="MU5tyoVie0ayg3GMmHC9-126" connectable="0" vertex="1">
                    <mxGeometry x="-0.6659" y="-7" relative="1" as="geometry">
                        <mxPoint as="offset"/>
                    </mxGeometry>
                </mxCell>
                <mxCell id="MU5tyoVie0ayg3GMmHC9-94" value="DevicesReady: &amp;lt;?&amp;gt;" style="rhombus;whiteSpace=wrap;html=1;strokeColor=default;align=center;verticalAlign=middle;fontFamily=Roboto Mono;fontSource=https%3A%2F%2Ffonts.googleapis.com%2Fcss%3Ffamily%3DRoboto%2BMono;fontSize=18;fontColor=default;fillColor=default;" parent="1" vertex="1">
                    <mxGeometry x="2308.57" y="770" width="150" height="150" as="geometry"/>
                </mxCell>
                <mxCell id="MU5tyoVie0ayg3GMmHC9-102" value="Ready: False&lt;br&gt;Reason:&amp;nbsp;DevicesAreNotReady" style="rounded=0;whiteSpace=wrap;html=1;strokeColor=#001DBC;align=left;verticalAlign=middle;fontFamily=Roboto Mono;fontSource=https%3A%2F%2Ffonts.googleapis.com%2Fcss%3Ffamily%3DRoboto%2BMono;fontSize=18;fillColor=#0050ef;fontColor=#ffffff;" parent="1" vertex="1">
                    <mxGeometry x="1958.57" y="950" width="300" height="80" as="geometry"/>
                </mxCell>
                <mxCell id="MU5tyoVie0ayg3GMmHC9-109" style="edgeStyle=orthogonalEdgeStyle;rounded=0;orthogonalLoop=1;jettySize=auto;html=1;exitX=1;exitY=0.5;exitDx=0;exitDy=0;entryX=0.5;entryY=0;entryDx=0;entryDy=0;fontFamily=Roboto Mono;fontSource=https%3A%2F%2Ffonts.googleapis.com%2Fcss%3Ffamily%3DRoboto%2BMono;fontSize=18;fontColor=default;" parent="1" source="MU5tyoVie0ayg3GMmHC9-106" target="MU5tyoVie0ayg3GMmHC9-94" edge="1">
                    <mxGeometry relative="1" as="geometry"/>
                </mxCell>
                <mxCell id="MU5tyoVie0ayg3GMmHC9-110" value="True, &amp;lt;*&amp;gt;" style="edgeLabel;html=1;align=center;verticalAlign=middle;resizable=0;points=[];strokeColor=default;fontFamily=Roboto Mono;fontSource=https%3A%2F%2Ffonts.googleapis.com%2Fcss%3Ffamily%3DRoboto%2BMono;fontSize=18;fontColor=default;fillColor=default;" parent="MU5tyoVie0ayg3GMmHC9-109" connectable="0" vertex="1">
                    <mxGeometry x="-0.4775" y="3" relative="1" as="geometry">
                        <mxPoint as="offset"/>
                    </mxGeometry>
                </mxCell>
                <mxCell id="MU5tyoVie0ayg3GMmHC9-112" style="edgeStyle=orthogonalEdgeStyle;rounded=0;orthogonalLoop=1;jettySize=auto;html=1;exitX=0;exitY=0.5;exitDx=0;exitDy=0;entryX=0.75;entryY=0;entryDx=0;entryDy=0;fontFamily=Roboto Mono;fontSource=https%3A%2F%2Ffonts.googleapis.com%2Fcss%3Ffamily%3DRoboto%2BMono;fontSize=18;fontColor=default;" parent="1" source="MU5tyoVie0ayg3GMmHC9-106" target="MU5tyoVie0ayg3GMmHC9-111" edge="1">
                    <mxGeometry relative="1" as="geometry"/>
                </mxCell>
                <mxCell id="MU5tyoVie0ayg3GMmHC9-117" value="False, &amp;lt;*&amp;gt;" style="edgeLabel;html=1;align=center;verticalAlign=middle;resizable=0;points=[];strokeColor=default;fontFamily=Roboto Mono;fontSource=https%3A%2F%2Ffonts.googleapis.com%2Fcss%3Ffamily%3DRoboto%2BMono;fontSize=18;fontColor=default;fillColor=default;" parent="MU5tyoVie0ayg3GMmHC9-112" connectable="0" vertex="1">
                    <mxGeometry x="0.1139" y="3" relative="1" as="geometry">
                        <mxPoint as="offset"/>
                    </mxGeometry>
                </mxCell>
                <mxCell id="MU5tyoVie0ayg3GMmHC9-116" style="edgeStyle=orthogonalEdgeStyle;rounded=0;orthogonalLoop=1;jettySize=auto;html=1;exitX=0;exitY=0.5;exitDx=0;exitDy=0;entryX=0.5;entryY=0;entryDx=0;entryDy=0;fontFamily=Roboto Mono;fontSource=https%3A%2F%2Ffonts.googleapis.com%2Fcss%3Ffamily%3DRoboto%2BMono;fontSize=18;fontColor=default;" parent="1" source="MU5tyoVie0ayg3GMmHC9-106" target="MU5tyoVie0ayg3GMmHC9-115" edge="1">
                    <mxGeometry relative="1" as="geometry"/>
                </mxCell>
                <mxCell id="MU5tyoVie0ayg3GMmHC9-118" value="False,ConfigurationAdjustmentPausedUntilInitialSync&amp;nbsp;" style="edgeLabel;html=1;align=center;verticalAlign=middle;resizable=0;points=[];strokeColor=default;fontFamily=Roboto Mono;fontSource=https%3A%2F%2Ffonts.googleapis.com%2Fcss%3Ffamily%3DRoboto%2BMono;fontSize=18;fontColor=default;fillColor=default;" parent="MU5tyoVie0ayg3GMmHC9-116" connectable="0" vertex="1">
                    <mxGeometry x="0.3663" y="1" relative="1" as="geometry">
                        <mxPoint x="-1" y="17" as="offset"/>
                    </mxGeometry>
                </mxCell>
                <mxCell id="MU5tyoVie0ayg3GMmHC9-106" value="ConfigurationAdjusted: &amp;lt;?&amp;gt;&lt;br&gt;Reason: &amp;lt;?&amp;gt;" style="rhombus;whiteSpace=wrap;html=1;strokeColor=default;align=center;verticalAlign=middle;fontFamily=Roboto Mono;fontSource=https%3A%2F%2Ffonts.googleapis.com%2Fcss%3Ffamily%3DRoboto%2BMono;fontSize=18;fontColor=default;fillColor=default;" parent="1" vertex="1">
                    <mxGeometry x="1788.57" y="670" width="150" height="150" as="geometry"/>
                </mxCell>
                <mxCell id="MU5tyoVie0ayg3GMmHC9-111" value="Ready: False&lt;br&gt;Reason:&amp;nbsp;AdjustmentFailed" style="rounded=0;whiteSpace=wrap;html=1;strokeColor=#001DBC;align=left;verticalAlign=middle;fontFamily=Roboto Mono;fontSource=https%3A%2F%2Ffonts.googleapis.com%2Fcss%3Ffamily%3DRoboto%2BMono;fontSize=18;fillColor=#0050ef;fontColor=#ffffff;" parent="1" vertex="1">
                    <mxGeometry x="1138.57" y="780" width="300" height="80" as="geometry"/>
                </mxCell>
                <mxCell id="MU5tyoVie0ayg3GMmHC9-115" value="Ready: False&lt;br&gt;Reason:&amp;nbsp;WaitingForInitialSync" style="rounded=0;whiteSpace=wrap;html=1;strokeColor=#001DBC;align=left;verticalAlign=middle;fontFamily=Roboto Mono;fontSource=https%3A%2F%2Ffonts.googleapis.com%2Fcss%3Ffamily%3DRoboto%2BMono;fontSize=18;fillColor=#0050ef;fontColor=#ffffff;" parent="1" vertex="1">
                    <mxGeometry x="1558.57" y="890" width="330" height="80" as="geometry"/>
                </mxCell>
                <mxCell id="MU5tyoVie0ayg3GMmHC9-125" style="edgeStyle=orthogonalEdgeStyle;rounded=0;orthogonalLoop=1;jettySize=auto;html=1;exitX=0.5;exitY=1;exitDx=0;exitDy=0;entryX=0.5;entryY=0;entryDx=0;entryDy=0;fontFamily=Roboto Mono;fontSource=https%3A%2F%2Ffonts.googleapis.com%2Fcss%3Ffamily%3DRoboto%2BMono;fontSize=18;fontColor=default;" parent="1" source="MU5tyoVie0ayg3GMmHC9-121" target="MU5tyoVie0ayg3GMmHC9-123" edge="1">
                    <mxGeometry relative="1" as="geometry"/>
                </mxCell>
                <mxCell id="MU5tyoVie0ayg3GMmHC9-121" value="Выполняется изменение размера тома" style="rounded=1;whiteSpace=wrap;html=1;strokeColor=default;align=center;verticalAlign=middle;fontFamily=Roboto Mono;fontSource=https%3A%2F%2Ffonts.googleapis.com%2Fcss%3Ffamily%3DRoboto%2BMono;fontSize=18;fontColor=default;fillColor=default;" parent="1" vertex="1">
                    <mxGeometry x="4505" y="-780" width="390" height="50" as="geometry"/>
                </mxCell>
                <mxCell id="MU5tyoVie0ayg3GMmHC9-123" value="Снимается аннотация&lt;br&gt;sds-replicated-volume.deckhouse.io/need-resize" style="rounded=1;whiteSpace=wrap;html=1;strokeColor=default;align=center;verticalAlign=middle;fontFamily=Roboto Mono;fontSource=https%3A%2F%2Ffonts.googleapis.com%2Fcss%3Ffamily%3DRoboto%2BMono;fontSize=18;fontColor=default;fillColor=default;" parent="1" vertex="1">
                    <mxGeometry x="4425" y="-670" width="550" height="50" as="geometry"/>
                </mxCell>
                <mxCell id="MU5tyoVie0ayg3GMmHC9-143" style="edgeStyle=orthogonalEdgeStyle;rounded=0;orthogonalLoop=1;jettySize=auto;html=1;exitX=0.5;exitY=1;exitDx=0;exitDy=0;entryX=0.5;entryY=0;entryDx=0;entryDy=0;fontFamily=Roboto Mono;fontSource=https%3A%2F%2Ffonts.googleapis.com%2Fcss%3Ffamily%3DRoboto%2BMono;fontSize=18;fontColor=default;" parent="1" source="MU5tyoVie0ayg3GMmHC9-142" target="MU5tyoVie0ayg3GMmHC9-17" edge="1">
                    <mxGeometry relative="1" as="geometry"/>
                </mxCell>
                <mxCell id="MU5tyoVie0ayg3GMmHC9-142" value="Добавляется финализатор&lt;br&gt;sds-replicated-volume.deckhouse.io" style="rounded=1;whiteSpace=wrap;html=1;strokeColor=default;align=center;verticalAlign=middle;fontFamily=Roboto Mono;fontSource=https%3A%2F%2Ffonts.googleapis.com%2Fcss%3Ffamily%3DRoboto%2BMono;fontSize=18;fontColor=default;fillColor=default;" parent="1" vertex="1">
                    <mxGeometry x="400" y="-795" width="530" height="80" as="geometry"/>
                </mxCell>
                <mxCell id="MU5tyoVie0ayg3GMmHC9-148" style="edgeStyle=orthogonalEdgeStyle;rounded=0;orthogonalLoop=1;jettySize=auto;html=1;exitX=0.5;exitY=1;exitDx=0;exitDy=0;entryX=0.5;entryY=0;entryDx=0;entryDy=0;fontFamily=Roboto Mono;fontSource=https%3A%2F%2Ffonts.googleapis.com%2Fcss%3Ffamily%3DRoboto%2BMono;fontSize=18;fontColor=default;" parent="1" source="MU5tyoVie0ayg3GMmHC9-145" target="MU5tyoVie0ayg3GMmHC9-147" edge="1">
                    <mxGeometry relative="1" as="geometry"/>
                </mxCell>
                <mxCell id="MU5tyoVie0ayg3GMmHC9-145" value="Ресурс удаляется:&lt;br&gt;DeletionTimestamp != nil" style="rounded=1;whiteSpace=wrap;html=1;strokeColor=default;align=center;verticalAlign=middle;fontFamily=Roboto Mono;fontSource=https%3A%2F%2Ffonts.googleapis.com%2Fcss%3Ffamily%3DRoboto%2BMono;fontSize=18;fontColor=default;fillColor=default;" parent="1" vertex="1">
                    <mxGeometry x="3100" y="-920" width="370" height="70" as="geometry"/>
                </mxCell>
                <mxCell id="MU5tyoVie0ayg3GMmHC9-146" value="Удаляется финализатор&lt;br&gt;sds-replicated-volume.deckhouse.io" style="rounded=1;whiteSpace=wrap;html=1;strokeColor=default;align=center;verticalAlign=middle;fontFamily=Roboto Mono;fontSource=https%3A%2F%2Ffonts.googleapis.com%2Fcss%3Ffamily%3DRoboto%2BMono;fontSize=18;fontColor=default;fillColor=default;" parent="1" vertex="1">
                    <mxGeometry x="3020" y="-640" width="530" height="80" as="geometry"/>
                </mxCell>
                <mxCell id="MU5tyoVie0ayg3GMmHC9-149" style="edgeStyle=orthogonalEdgeStyle;rounded=0;orthogonalLoop=1;jettySize=auto;html=1;exitX=0.5;exitY=1;exitDx=0;exitDy=0;entryX=0.5;entryY=0;entryDx=0;entryDy=0;fontFamily=Roboto Mono;fontSource=https%3A%2F%2Ffonts.googleapis.com%2Fcss%3Ffamily%3DRoboto%2BMono;fontSize=18;fontColor=default;" parent="1" source="MU5tyoVie0ayg3GMmHC9-147" target="MU5tyoVie0ayg3GMmHC9-146" edge="1">
                    <mxGeometry relative="1" as="geometry"/>
                </mxCell>
                <mxCell id="MU5tyoVie0ayg3GMmHC9-147" value="DRBD ресурс удаляется" style="rounded=1;whiteSpace=wrap;html=1;strokeColor=default;align=center;verticalAlign=middle;fontFamily=Roboto Mono;fontSource=https%3A%2F%2Ffonts.googleapis.com%2Fcss%3Ffamily%3DRoboto%2BMono;fontSize=18;fontColor=default;fillColor=default;" parent="1" vertex="1">
                    <mxGeometry x="3130" y="-765" width="310" height="50" as="geometry"/>
                </mxCell>
                <mxCell id="9URH--LWAzWo3OgIna6w-1" value="Диаграмма состояний контроллера&lt;br&gt;sds-replicated-volume-agent" style="text;html=1;align=center;verticalAlign=middle;whiteSpace=wrap;rounded=0;fontSize=72;" parent="1" vertex="1">
                    <mxGeometry x="849.9999999999999" y="-1250" width="3321.43" height="210" as="geometry"/>
                </mxCell>
                <mxCell id="tXNj0o7xT81Ir_27zUx--8" style="edgeStyle=orthogonalEdgeStyle;rounded=0;orthogonalLoop=1;jettySize=auto;html=1;exitX=0;exitY=0.5;exitDx=0;exitDy=0;entryX=0.5;entryY=0;entryDx=0;entryDy=0;" parent="1" source="tXNj0o7xT81Ir_27zUx--5" target="tXNj0o7xT81Ir_27zUx--7" edge="1">
                    <mxGeometry relative="1" as="geometry"/>
                </mxCell>
                <mxCell id="tXNj0o7xT81Ir_27zUx--12" value="да" style="edgeLabel;html=1;align=center;verticalAlign=middle;resizable=0;points=[];strokeColor=default;fontFamily=Roboto Mono;fontSource=https%3A%2F%2Ffonts.googleapis.com%2Fcss%3Ffamily%3DRoboto%2BMono;fontSize=18;fontColor=default;fillColor=default;" parent="tXNj0o7xT81Ir_27zUx--8" connectable="0" vertex="1">
                    <mxGeometry x="-0.6721" y="-1" relative="1" as="geometry">
                        <mxPoint as="offset"/>
                    </mxGeometry>
                </mxCell>
                <mxCell id="tXNj0o7xT81Ir_27zUx--9" style="edgeStyle=orthogonalEdgeStyle;rounded=0;orthogonalLoop=1;jettySize=auto;html=1;exitX=1;exitY=0.5;exitDx=0;exitDy=0;entryX=0.5;entryY=0;entryDx=0;entryDy=0;" parent="1" source="tXNj0o7xT81Ir_27zUx--5" target="tXNj0o7xT81Ir_27zUx--6" edge="1">
                    <mxGeometry relative="1" as="geometry"/>
                </mxCell>
                <mxCell id="tXNj0o7xT81Ir_27zUx--11" value="&lt;font style=&quot;font-size: 18px;&quot; data-font-src=&quot;https://fonts.googleapis.com/css?family=Roboto+Mono&quot; face=&quot;Roboto Mono&quot;&gt;нет&lt;/font&gt;" style="edgeLabel;html=1;align=center;verticalAlign=middle;resizable=0;points=[];" parent="tXNj0o7xT81Ir_27zUx--9" connectable="0" vertex="1">
                    <mxGeometry x="-0.735" relative="1" as="geometry">
                        <mxPoint as="offset"/>
                    </mxGeometry>
                </mxCell>
                <mxCell id="tXNj0o7xT81Ir_27zUx--5" value="все девайсы DRBD ресурса на узле находятся в состоянии кворума" style="rhombus;whiteSpace=wrap;html=1;strokeColor=default;align=center;verticalAlign=middle;fontFamily=Roboto Mono;fontSource=https%3A%2F%2Ffonts.googleapis.com%2Fcss%3Ffamily%3DRoboto%2BMono;fontSize=18;fontColor=default;fillColor=default;" parent="1" vertex="1">
                    <mxGeometry x="2436.7200000000003" y="-120" width="170" height="170" as="geometry"/>
                </mxCell>
                <mxCell id="tXNj0o7xT81Ir_27zUx--21" style="edgeStyle=orthogonalEdgeStyle;rounded=0;orthogonalLoop=1;jettySize=auto;html=1;exitX=0.5;exitY=1;exitDx=0;exitDy=0;entryX=0.5;entryY=0;entryDx=0;entryDy=0;fontFamily=Roboto Mono;fontSource=https%3A%2F%2Ffonts.googleapis.com%2Fcss%3Ffamily%3DRoboto%2BMono;fontSize=18;fontColor=default;" parent="1" source="tXNj0o7xT81Ir_27zUx--6" target="tXNj0o7xT81Ir_27zUx--13" edge="1">
                    <mxGeometry relative="1" as="geometry"/>
                </mxCell>
                <mxCell id="tXNj0o7xT81Ir_27zUx--6" value="Quorum: False" style="rounded=0;whiteSpace=wrap;html=1;strokeColor=#001DBC;align=center;verticalAlign=middle;fontFamily=Roboto Mono;fontSource=https%3A%2F%2Ffonts.googleapis.com%2Fcss%3Ffamily%3DRoboto%2BMono;fontSize=18;fillColor=#0050ef;fontColor=#ffffff;" parent="1" vertex="1">
                    <mxGeometry x="2610.7199999999993" y="40" width="220" height="40" as="geometry"/>
                </mxCell>
                <mxCell id="tXNj0o7xT81Ir_27zUx--20" style="edgeStyle=orthogonalEdgeStyle;rounded=0;orthogonalLoop=1;jettySize=auto;html=1;exitX=0.5;exitY=1;exitDx=0;exitDy=0;entryX=0.5;entryY=0;entryDx=0;entryDy=0;fontFamily=Roboto Mono;fontSource=https%3A%2F%2Ffonts.googleapis.com%2Fcss%3Ffamily%3DRoboto%2BMono;fontSize=18;fontColor=default;" parent="1" source="tXNj0o7xT81Ir_27zUx--7" target="tXNj0o7xT81Ir_27zUx--13" edge="1">
                    <mxGeometry relative="1" as="geometry"/>
                </mxCell>
                <mxCell id="tXNj0o7xT81Ir_27zUx--7" value="Quorum: True" style="rounded=0;whiteSpace=wrap;html=1;strokeColor=#001DBC;align=center;verticalAlign=middle;fontFamily=Roboto Mono;fontSource=https%3A%2F%2Ffonts.googleapis.com%2Fcss%3Ffamily%3DRoboto%2BMono;fontSize=18;fillColor=#0050ef;fontColor=#ffffff;" parent="1" vertex="1">
                    <mxGeometry x="2210.7200000000003" y="40" width="220" height="40" as="geometry"/>
                </mxCell>
                <mxCell id="tXNj0o7xT81Ir_27zUx--16" style="edgeStyle=orthogonalEdgeStyle;rounded=0;orthogonalLoop=1;jettySize=auto;html=1;exitX=0;exitY=0.5;exitDx=0;exitDy=0;entryX=0.5;entryY=0;entryDx=0;entryDy=0;fontFamily=Roboto Mono;fontSource=https%3A%2F%2Ffonts.googleapis.com%2Fcss%3Ffamily%3DRoboto%2BMono;fontSize=18;fontColor=default;" parent="1" source="tXNj0o7xT81Ir_27zUx--13" target="tXNj0o7xT81Ir_27zUx--15" edge="1">
                    <mxGeometry relative="1" as="geometry"/>
                </mxCell>
                <mxCell id="tXNj0o7xT81Ir_27zUx--19" value="да" style="edgeLabel;html=1;align=center;verticalAlign=middle;resizable=0;points=[];strokeColor=default;fontFamily=Roboto Mono;fontSource=https%3A%2F%2Ffonts.googleapis.com%2Fcss%3Ffamily%3DRoboto%2BMono;fontSize=18;fontColor=default;fillColor=default;" parent="tXNj0o7xT81Ir_27zUx--16" connectable="0" vertex="1">
                    <mxGeometry x="-0.4135" y="1" relative="1" as="geometry">
                        <mxPoint as="offset"/>
                    </mxGeometry>
                </mxCell>
                <mxCell id="tXNj0o7xT81Ir_27zUx--17" style="edgeStyle=orthogonalEdgeStyle;rounded=0;orthogonalLoop=1;jettySize=auto;html=1;exitX=1;exitY=0.5;exitDx=0;exitDy=0;entryX=0.5;entryY=0;entryDx=0;entryDy=0;fontFamily=Roboto Mono;fontSource=https%3A%2F%2Ffonts.googleapis.com%2Fcss%3Ffamily%3DRoboto%2BMono;fontSize=18;fontColor=default;" parent="1" source="tXNj0o7xT81Ir_27zUx--13" target="tXNj0o7xT81Ir_27zUx--14" edge="1">
                    <mxGeometry relative="1" as="geometry"/>
                </mxCell>
                <mxCell id="tXNj0o7xT81Ir_27zUx--18" value="нет" style="edgeLabel;html=1;align=center;verticalAlign=middle;resizable=0;points=[];strokeColor=default;fontFamily=Roboto Mono;fontSource=https%3A%2F%2Ffonts.googleapis.com%2Fcss%3Ffamily%3DRoboto%2BMono;fontSize=18;fontColor=default;fillColor=default;" parent="tXNj0o7xT81Ir_27zUx--17" connectable="0" vertex="1">
                    <mxGeometry x="-0.6956" y="1" relative="1" as="geometry">
                        <mxPoint as="offset"/>
                    </mxGeometry>
                </mxCell>
                <mxCell id="tXNj0o7xT81Ir_27zUx--13" value="для DRBD ресурса приостановлен ввод/вывод" style="rhombus;whiteSpace=wrap;html=1;strokeColor=default;align=center;verticalAlign=middle;fontFamily=Roboto Mono;fontSource=https%3A%2F%2Ffonts.googleapis.com%2Fcss%3Ffamily%3DRoboto%2BMono;fontSize=18;fontColor=default;fillColor=default;" parent="1" vertex="1">
                    <mxGeometry x="2450.72" y="160" width="170" height="170" as="geometry"/>
                </mxCell>
                <mxCell id="tXNj0o7xT81Ir_27zUx--29" style="edgeStyle=orthogonalEdgeStyle;rounded=0;orthogonalLoop=1;jettySize=auto;html=1;exitX=0.5;exitY=1;exitDx=0;exitDy=0;entryX=0.5;entryY=0;entryDx=0;entryDy=0;fontFamily=Roboto Mono;fontSource=https%3A%2F%2Ffonts.googleapis.com%2Fcss%3Ffamily%3DRoboto%2BMono;fontSize=18;fontColor=default;" parent="1" source="tXNj0o7xT81Ir_27zUx--14" target="MU5tyoVie0ayg3GMmHC9-106" edge="1">
                    <mxGeometry relative="1" as="geometry"/>
                </mxCell>
                <mxCell id="tXNj0o7xT81Ir_27zUx--14" value="DiskIOSuspended: False" style="rounded=0;whiteSpace=wrap;html=1;strokeColor=#001DBC;align=center;verticalAlign=middle;fontFamily=Roboto Mono;fontSource=https%3A%2F%2Ffonts.googleapis.com%2Fcss%3Ffamily%3DRoboto%2BMono;fontSize=18;fillColor=#0050ef;fontColor=#ffffff;" parent="1" vertex="1">
                    <mxGeometry x="2599.9999999999995" y="360" width="280" height="40" as="geometry"/>
                </mxCell>
                <mxCell id="tXNj0o7xT81Ir_27zUx--28" style="edgeStyle=orthogonalEdgeStyle;rounded=0;orthogonalLoop=1;jettySize=auto;html=1;exitX=0.5;exitY=1;exitDx=0;exitDy=0;entryX=0.5;entryY=0;entryDx=0;entryDy=0;fontFamily=Roboto Mono;fontSource=https%3A%2F%2Ffonts.googleapis.com%2Fcss%3Ffamily%3DRoboto%2BMono;fontSize=18;fontColor=default;" parent="1" source="tXNj0o7xT81Ir_27zUx--15" target="MU5tyoVie0ayg3GMmHC9-106" edge="1">
                    <mxGeometry relative="1" as="geometry"/>
                </mxCell>
                <mxCell id="tXNj0o7xT81Ir_27zUx--15" value="DiskIOSuspended: True&lt;br&gt;Reason:&amp;nbsp;DiskIOSuspended&amp;lt;...&amp;gt;" style="rounded=0;whiteSpace=wrap;html=1;strokeColor=#001DBC;align=left;verticalAlign=middle;fontFamily=Roboto Mono;fontSource=https%3A%2F%2Ffonts.googleapis.com%2Fcss%3Ffamily%3DRoboto%2BMono;fontSize=18;fillColor=#0050ef;fontColor=#ffffff;" parent="1" vertex="1">
                    <mxGeometry x="2140.72" y="340" width="320" height="60" as="geometry"/>
                </mxCell>
                <mxCell id="tXNj0o7xT81Ir_27zUx--32" style="edgeStyle=orthogonalEdgeStyle;rounded=0;orthogonalLoop=1;jettySize=auto;html=1;exitX=0;exitY=0.5;exitDx=0;exitDy=0;entryX=0.5;entryY=0;entryDx=0;entryDy=0;fontFamily=Roboto Mono;fontSource=https%3A%2F%2Ffonts.googleapis.com%2Fcss%3Ffamily%3DRoboto%2BMono;fontSize=18;fontColor=default;" parent="1" source="tXNj0o7xT81Ir_27zUx--30" target="tXNj0o7xT81Ir_27zUx--31" edge="1">
                    <mxGeometry relative="1" as="geometry"/>
                </mxCell>
                <mxCell id="tXNj0o7xT81Ir_27zUx--39" value="&amp;lt;*&amp;gt;" style="edgeLabel;html=1;align=center;verticalAlign=middle;resizable=0;points=[];strokeColor=default;fontFamily=Roboto Mono;fontSource=https%3A%2F%2Ffonts.googleapis.com%2Fcss%3Ffamily%3DRoboto%2BMono;fontSize=18;fontColor=default;fillColor=default;" parent="tXNj0o7xT81Ir_27zUx--32" connectable="0" vertex="1">
                    <mxGeometry x="0.177" y="-1" relative="1" as="geometry">
                        <mxPoint as="offset"/>
                    </mxGeometry>
                </mxCell>
                <mxCell id="tXNj0o7xT81Ir_27zUx--34" style="edgeStyle=orthogonalEdgeStyle;rounded=0;orthogonalLoop=1;jettySize=auto;html=1;exitX=1;exitY=0.5;exitDx=0;exitDy=0;entryX=0.5;entryY=0;entryDx=0;entryDy=0;fontFamily=Roboto Mono;fontSource=https%3A%2F%2Ffonts.googleapis.com%2Fcss%3Ffamily%3DRoboto%2BMono;fontSize=18;fontColor=default;" parent="1" source="tXNj0o7xT81Ir_27zUx--30" target="tXNj0o7xT81Ir_27zUx--33" edge="1">
                    <mxGeometry relative="1" as="geometry"/>
                </mxCell>
                <mxCell id="tXNj0o7xT81Ir_27zUx--30" value="Quorum: &amp;lt;?&amp;gt;" style="rhombus;whiteSpace=wrap;html=1;strokeColor=default;align=center;verticalAlign=middle;fontFamily=Roboto Mono;fontSource=https%3A%2F%2Ffonts.googleapis.com%2Fcss%3Ffamily%3DRoboto%2BMono;fontSize=18;fontColor=default;fillColor=default;" parent="1" vertex="1">
                    <mxGeometry x="2741.72" y="745" width="150" height="150" as="geometry"/>
                </mxCell>
                <mxCell id="tXNj0o7xT81Ir_27zUx--31" value="Ready: False&lt;br&gt;Reason:&amp;nbsp;NoQuorum" style="rounded=0;whiteSpace=wrap;html=1;strokeColor=#001DBC;align=left;verticalAlign=middle;fontFamily=Roboto Mono;fontSource=https%3A%2F%2Ffonts.googleapis.com%2Fcss%3Ffamily%3DRoboto%2BMono;fontSize=18;fillColor=#0050ef;fontColor=#ffffff;" parent="1" vertex="1">
                    <mxGeometry x="2530.72" y="950" width="300" height="80" as="geometry"/>
                </mxCell>
                <mxCell id="tXNj0o7xT81Ir_27zUx--35" style="edgeStyle=orthogonalEdgeStyle;rounded=0;orthogonalLoop=1;jettySize=auto;html=1;exitX=1;exitY=0.5;exitDx=0;exitDy=0;entryX=0.5;entryY=0;entryDx=0;entryDy=0;fontFamily=Roboto Mono;fontSource=https%3A%2F%2Ffonts.googleapis.com%2Fcss%3Ffamily%3DRoboto%2BMono;fontSize=18;fontColor=default;" parent="1" source="tXNj0o7xT81Ir_27zUx--33" target="MU5tyoVie0ayg3GMmHC9-3" edge="1">
                    <mxGeometry relative="1" as="geometry"/>
                </mxCell>
                <mxCell id="tXNj0o7xT81Ir_27zUx--36" value="False" style="edgeLabel;html=1;align=center;verticalAlign=middle;resizable=0;points=[];strokeColor=default;fontFamily=Roboto Mono;fontSource=https%3A%2F%2Ffonts.googleapis.com%2Fcss%3Ffamily%3DRoboto%2BMono;fontSize=18;fontColor=default;fillColor=default;" parent="tXNj0o7xT81Ir_27zUx--35" connectable="0" vertex="1">
                    <mxGeometry x="-0.4961" y="1" relative="1" as="geometry">
                        <mxPoint as="offset"/>
                    </mxGeometry>
                </mxCell>
                <mxCell id="tXNj0o7xT81Ir_27zUx--38" style="edgeStyle=orthogonalEdgeStyle;rounded=0;orthogonalLoop=1;jettySize=auto;html=1;exitX=0;exitY=0.5;exitDx=0;exitDy=0;entryX=0.5;entryY=0;entryDx=0;entryDy=0;fontFamily=Roboto Mono;fontSource=https%3A%2F%2Ffonts.googleapis.com%2Fcss%3Ffamily%3DRoboto%2BMono;fontSize=18;fontColor=default;" parent="1" source="tXNj0o7xT81Ir_27zUx--33" target="tXNj0o7xT81Ir_27zUx--37" edge="1">
                    <mxGeometry relative="1" as="geometry"/>
                </mxCell>
                <mxCell id="tXNj0o7xT81Ir_27zUx--40" value="&amp;lt;*&amp;gt;" style="edgeLabel;html=1;align=center;verticalAlign=middle;resizable=0;points=[];strokeColor=default;fontFamily=Roboto Mono;fontSource=https%3A%2F%2Ffonts.googleapis.com%2Fcss%3Ffamily%3DRoboto%2BMono;fontSize=18;fontColor=default;fillColor=default;" parent="tXNj0o7xT81Ir_27zUx--38" connectable="0" vertex="1">
                    <mxGeometry x="0.1734" y="-2" relative="1" as="geometry">
                        <mxPoint as="offset"/>
                    </mxGeometry>
                </mxCell>
                <mxCell id="tXNj0o7xT81Ir_27zUx--33" value="DiskIOSuspended: &amp;lt;?&amp;gt;" style="rhombus;whiteSpace=wrap;html=1;strokeColor=default;align=center;verticalAlign=middle;fontFamily=Roboto Mono;fontSource=https%3A%2F%2Ffonts.googleapis.com%2Fcss%3Ffamily%3DRoboto%2BMono;fontSize=18;fontColor=default;fillColor=default;" parent="1" vertex="1">
                    <mxGeometry x="3120" y="740" width="150" height="150" as="geometry"/>
                </mxCell>
                <mxCell id="tXNj0o7xT81Ir_27zUx--37" value="Ready: False&lt;br&gt;Reason:&amp;nbsp;DiskIOSuspended" style="rounded=0;whiteSpace=wrap;html=1;strokeColor=#001DBC;align=left;verticalAlign=middle;fontFamily=Roboto Mono;fontSource=https%3A%2F%2Ffonts.googleapis.com%2Fcss%3Ffamily%3DRoboto%2BMono;fontSize=18;fillColor=#0050ef;fontColor=#ffffff;" parent="1" vertex="1">
                    <mxGeometry x="2940" y="950" width="300" height="80" as="geometry"/>
                </mxCell>
                <mxCell id="MU5tyoVie0ayg3GMmHC9-46" value="" style="rounded=0;whiteSpace=wrap;html=1;strokeColor=#001DBC;align=center;verticalAlign=middle;fontFamily=Roboto Mono;fontSource=https%3A%2F%2Ffonts.googleapis.com%2Fcss%3Ffamily%3DRoboto%2BMono;fontSize=18;fillColor=#0050ef;fontColor=#ffffff;" parent="1" vertex="1">
                    <mxGeometry x="4200" y="130" width="60" height="40" as="geometry"/>
                </mxCell>
                <mxCell id="MU5tyoVie0ayg3GMmHC9-131" value="" style="rounded=1;whiteSpace=wrap;html=1;strokeColor=default;align=center;verticalAlign=middle;fontFamily=Roboto Mono;fontSource=https%3A%2F%2Ffonts.googleapis.com%2Fcss%3Ffamily%3DRoboto%2BMono;fontSize=18;fontColor=default;fillColor=default;" parent="1" vertex="1">
                    <mxGeometry x="4200" y="210" width="60" height="40" as="geometry"/>
                </mxCell>
                <mxCell id="MU5tyoVie0ayg3GMmHC9-132" value="" style="rounded=0;whiteSpace=wrap;html=1;strokeColor=#C73500;align=center;verticalAlign=middle;fontFamily=Roboto Mono;fontSource=https%3A%2F%2Ffonts.googleapis.com%2Fcss%3Ffamily%3DRoboto%2BMono;fontSize=18;fillColor=#fa6800;fontColor=#000000;" parent="1" vertex="1">
                    <mxGeometry x="4205" y="290" width="50" height="40" as="geometry"/>
                </mxCell>
                <mxCell id="MU5tyoVie0ayg3GMmHC9-134" value="Изменение status.conditions" style="text;html=1;align=center;verticalAlign=middle;whiteSpace=wrap;rounded=0;fontFamily=Roboto Mono;fontSource=https%3A%2F%2Ffonts.googleapis.com%2Fcss%3Ffamily%3DRoboto%2BMono;fontSize=18;fontColor=default;" parent="1" vertex="1">
                    <mxGeometry x="4320" y="135" width="300" height="30" as="geometry"/>
                </mxCell>
                <mxCell id="MU5tyoVie0ayg3GMmHC9-135" value="Произвольное действие" style="text;html=1;align=center;verticalAlign=middle;whiteSpace=wrap;rounded=0;fontFamily=Roboto Mono;fontSource=https%3A%2F%2Ffonts.googleapis.com%2Fcss%3Ffamily%3DRoboto%2BMono;fontSize=18;fontColor=default;" parent="1" vertex="1">
                    <mxGeometry x="4315" y="210" width="300" height="30" as="geometry"/>
                </mxCell>
                <mxCell id="MU5tyoVie0ayg3GMmHC9-136" value="Повтор текущей операции" style="text;html=1;align=center;verticalAlign=middle;whiteSpace=wrap;rounded=0;fontFamily=Roboto Mono;fontSource=https%3A%2F%2Ffonts.googleapis.com%2Fcss%3Ffamily%3DRoboto%2BMono;fontSize=18;fontColor=default;" parent="1" vertex="1">
                    <mxGeometry x="4315" y="290" width="300" height="30" as="geometry"/>
                </mxCell>
                <mxCell id="tXNj0o7xT81Ir_27zUx--41" value="&amp;lt;*&amp;gt;" style="text;html=1;align=center;verticalAlign=middle;whiteSpace=wrap;rounded=0;fontFamily=Roboto Mono;fontSource=https%3A%2F%2Ffonts.googleapis.com%2Fcss%3Ffamily%3DRoboto%2BMono;fontSize=18;fontColor=default;" parent="1" vertex="1">
                    <mxGeometry x="4195" y="360" width="60" height="30" as="geometry"/>
                </mxCell>
                <mxCell id="tXNj0o7xT81Ir_27zUx--42" value="&amp;lt;...&amp;gt;" style="text;html=1;align=center;verticalAlign=middle;whiteSpace=wrap;rounded=0;fontFamily=Roboto Mono;fontSource=https%3A%2F%2Ffonts.googleapis.com%2Fcss%3Ffamily%3DRoboto%2BMono;fontSize=18;fontColor=default;" parent="1" vertex="1">
                    <mxGeometry x="4205" y="420" width="60" height="30" as="geometry"/>
                </mxCell>
                <mxCell id="tXNj0o7xT81Ir_27zUx--43" value="Все остальные возможные значения" style="text;html=1;align=center;verticalAlign=middle;whiteSpace=wrap;rounded=0;fontFamily=Roboto Mono;fontSource=https%3A%2F%2Ffonts.googleapis.com%2Fcss%3Ffamily%3DRoboto%2BMono;fontSize=18;fontColor=default;" parent="1" vertex="1">
                    <mxGeometry x="4295" y="360" width="350" height="30" as="geometry"/>
                </mxCell>
                <mxCell id="tXNj0o7xT81Ir_27zUx--44" value="Произвольные строковые значения" style="text;html=1;align=center;verticalAlign=middle;whiteSpace=wrap;rounded=0;fontFamily=Roboto Mono;fontSource=https%3A%2F%2Ffonts.googleapis.com%2Fcss%3Ffamily%3DRoboto%2BMono;fontSize=18;fontColor=default;" parent="1" vertex="1">
                    <mxGeometry x="4295" y="420" width="350" height="30" as="geometry"/>
                </mxCell>
                <mxCell id="tXNj0o7xT81Ir_27zUx--45" value="&amp;lt;?&amp;gt;" style="text;html=1;align=center;verticalAlign=middle;whiteSpace=wrap;rounded=0;fontFamily=Roboto Mono;fontSource=https%3A%2F%2Ffonts.googleapis.com%2Fcss%3Ffamily%3DRoboto%2BMono;fontSize=18;fontColor=default;" parent="1" vertex="1">
                    <mxGeometry x="4205" y="470" width="60" height="30" as="geometry"/>
                </mxCell>
                <mxCell id="tXNj0o7xT81Ir_27zUx--46" value="Значение под условием" style="text;html=1;align=center;verticalAlign=middle;whiteSpace=wrap;rounded=0;fontFamily=Roboto Mono;fontSource=https%3A%2F%2Ffonts.googleapis.com%2Fcss%3Ffamily%3DRoboto%2BMono;fontSize=18;fontColor=default;" parent="1" vertex="1">
                    <mxGeometry x="4280" y="470" width="350" height="30" as="geometry"/>
                </mxCell>
            </root>
        </mxGraphModel>
    </diagram>
</mxfile>